<svg width="48" height="48" viewBox="0 0 48 48" fill="none" xmlns="http://www.w3.org/2000/svg">
<path d="M27.0125 12.0499H19.4812C18.7046 12.0499 18.075 12.6796 18.075 13.4562V24.0999H16.4687C15.6921 24.0999 15.0625 24.7295 15.0625 25.5062C15.0625 26.2828 15.6921 26.9124 16.4687 26.9124H18.075V30.1249H16.4687C15.6921 30.1249 15.0625 30.7546 15.0625 31.5312C15.0625 32.3078 15.6921 32.9374 16.4687 32.9374H18.075V36.0499C18.075 36.8266 18.7046 37.4562 19.4812 37.4562C20.2578 37.4562 20.8875 36.8266 20.8875 36.0499V32.9374H27.0125C27.7891 32.9374 28.4188 32.3078 28.4188 31.5312C28.4188 30.7546 27.7891 30.1249 27.0125 30.1249H20.8875V26.9124H27.0125C31.1101 26.9124 34.4438 23.5788 34.4438 19.4811C34.4437 15.2823 31.0234 12.0499 27.0125 12.0499ZM27.0125 24.0999H20.8875V14.8624H27.0125C29.544 14.8624 31.6313 16.9043 31.6313 19.4812C31.6312 22.028 29.5593 24.0999 27.0125 24.0999Z" fill="white"/>
<path d="M24 0C10.7663 0 0 10.7663 0 24C0 37.2337 10.7663 48 24 48C37.2337 48 48 37.2337 48 24C48 10.7663 37.2337 0 24 0ZM24 45.1875C12.3172 45.1875 2.8125 35.6828 2.8125 24C2.8125 12.3172 12.3172 2.8125 24 2.8125C35.6828 2.8125 45.1875 12.3172 45.1875 24C45.1875 35.6828 35.6828 45.1875 24 45.1875Z" fill="white"/>
</svg>
