<svg width="13" height="22" viewBox="0 0 13 22" fill="none" xmlns="http://www.w3.org/2000/svg">
<path d="M11.5592 0.152388L8.69596 0.147949C5.47919 0.147949 3.40038 2.20862 3.40038 5.39806V7.81871H0.521508C0.272739 7.81871 0.0712891 8.01357 0.0712891 8.25392V11.7612C0.0712891 12.0015 0.272969 12.1962 0.521508 12.1962H3.40038V21.0461C3.40038 21.2864 3.60183 21.4811 3.8506 21.4811H7.60671C7.85547 21.4811 8.05692 21.2862 8.05692 21.0461V12.1962H11.423C11.6718 12.1962 11.8732 12.0015 11.8732 11.7612L11.8746 8.25392C11.8746 8.13852 11.827 8.02799 11.7427 7.94632C11.6584 7.86465 11.5436 7.81871 11.4241 7.81871H8.05692V5.76669C8.05692 4.78041 8.30018 4.27972 9.62993 4.27972L11.5588 4.27906C11.8073 4.27906 12.0087 4.0842 12.0087 3.84406V0.587382C12.0087 0.347469 11.8075 0.152832 11.5592 0.152388Z" fill="url(#paint0_linear)"/>
<defs>
<linearGradient id="paint0_linear" x1="-22.8431" y1="-100.774" x2="19.6249" y2="-98.0562" gradientUnits="userSpaceOnUse">
<stop stop-color="#DD0000"/>
<stop offset="0.991476" stop-color="#F37500"/>
</linearGradient>
</defs>
</svg>
