<svg width="23" height="22" viewBox="0 0 23 22" fill="none" xmlns="http://www.w3.org/2000/svg">
<g clip-path="url(#clip0)">
<path d="M15.46 0.666504H7.18003C3.36985 0.666504 0.280029 3.65184 0.280029 7.33317V15.3332C0.280029 19.0145 3.36985 21.9998 7.18003 21.9998H15.46C19.2702 21.9998 22.36 19.0145 22.36 15.3332V7.33317C22.36 3.65184 19.2702 0.666504 15.46 0.666504ZM20.29 15.3332C20.29 17.9065 18.1234 19.9998 15.46 19.9998H7.18003C4.51663 19.9998 2.35003 17.9065 2.35003 15.3332V7.33317C2.35003 4.75984 4.51663 2.6665 7.18003 2.6665H15.46C18.1234 2.6665 20.29 4.75984 20.29 7.33317V15.3332Z" fill="url(#paint0_linear)"/>
<path d="M11.32 6C8.27163 6 5.80005 8.388 5.80005 11.3333C5.80005 14.2787 8.27163 16.6667 11.32 16.6667C14.3685 16.6667 16.84 14.2787 16.84 11.3333C16.84 8.388 14.3685 6 11.32 6ZM11.32 14.6667C9.41841 14.6667 7.87005 13.1707 7.87005 11.3333C7.87005 9.49467 9.41841 8 11.32 8C13.2217 8 14.77 9.49467 14.77 11.3333C14.77 13.1707 13.2217 14.6667 11.32 14.6667Z" fill="url(#paint1_linear)"/>
<path d="M17.2541 6.31049C17.6603 6.31049 17.9896 5.99231 17.9896 5.59982C17.9896 5.20734 17.6603 4.88916 17.2541 4.88916C16.8479 4.88916 16.5186 5.20734 16.5186 5.59982C16.5186 5.99231 16.8479 6.31049 17.2541 6.31049Z" fill="url(#paint2_linear)"/>
</g>
<defs>
<linearGradient id="paint0_linear" x1="-42.1034" y1="-100.257" x2="35.679" y2="-91.0494" gradientUnits="userSpaceOnUse">
<stop stop-color="#DD0000"/>
<stop offset="0.991476" stop-color="#F37500"/>
</linearGradient>
<linearGradient id="paint1_linear" x1="-15.3917" y1="-44.4615" x2="23.4995" y2="-39.858" gradientUnits="userSpaceOnUse">
<stop stop-color="#DD0000"/>
<stop offset="0.991476" stop-color="#F37500"/>
</linearGradient>
<linearGradient id="paint2_linear" x1="13.6948" y1="-1.83481" x2="18.877" y2="-1.22138" gradientUnits="userSpaceOnUse">
<stop stop-color="#DD0000"/>
<stop offset="0.991476" stop-color="#F37500"/>
</linearGradient>
<clipPath id="clip0">
<rect x="0.280029" y="0.666504" width="22.08" height="21.3333" fill="white"/>
</clipPath>
</defs>
</svg>
