<svg width="64" height="64" viewBox="0 0 64 64" fill="none" xmlns="http://www.w3.org/2000/svg">
<path d="M39.3805 26.6928L33.2099 22.1105C32.8399 21.8354 32.3539 21.7933 31.9417 22.0004C31.5297 22.2076 31.2737 22.6229 31.2737 23.084V24.597H27.3542C26.6855 24.597 26.1414 25.1412 26.1414 25.8099V29.5233C26.1414 30.1922 26.6855 30.7362 27.3542 30.7362H31.2737V32.2492C31.2737 32.7103 31.5297 33.1255 31.9416 33.3327C32.1152 33.42 32.302 33.4632 32.4877 33.4632C32.7426 33.4632 32.9955 33.382 33.2096 33.2228L39.3804 28.6403C39.6871 28.4125 39.8702 28.0485 39.8702 27.6665C39.8702 27.2844 39.6871 26.9204 39.3805 26.6928ZM33.097 31.0354V29.8245C33.097 29.321 32.6889 28.9129 32.1854 28.9129H27.9647V26.4203H32.1854C32.6889 26.4203 33.097 26.0122 33.097 25.5087V24.2979L37.6332 27.6667L33.097 31.0354Z" fill="#FF0000"/>
<path d="M59.9919 31.6289L56.3031 26.3415C56.0558 25.9867 55.6499 25.7749 55.2173 25.7749H47.3333C46.6034 25.7749 46.0095 26.3687 46.0095 27.0987V34.9426C46.0095 35.6726 46.6034 36.2664 47.3333 36.2664H58.9063C59.6361 36.2664 60.23 35.6726 60.23 34.9426V32.3863C60.23 32.1138 60.1475 31.8518 59.9919 31.6289ZM58.4065 34.443H47.8329V27.5983H54.9565L58.4065 32.5433V34.443Z" fill="black"/>
<path d="M63.9981 44.4035V31.9222C63.9981 31.1782 63.7731 30.4625 63.3475 29.8527L58.9529 23.5537C58.277 22.5848 57.168 22.0063 55.9866 22.0063H53.8376C53.3341 22.0063 52.926 22.4144 52.926 22.9179C52.926 23.4214 53.3341 23.8295 53.8376 23.8295H55.9866C56.5725 23.8295 57.1222 24.1163 57.4575 24.5968L61.8522 30.8959C62.0632 31.1983 62.1748 31.553 62.1748 31.922V43.4965H59.0684C59.0462 43.4528 59.0229 43.4099 58.9997 43.3669C58.9916 43.3519 58.984 43.3367 58.9757 43.3217C58.9329 43.2434 58.8885 43.1663 58.8425 43.0903C58.827 43.0645 58.8106 43.0393 58.7948 43.0137C58.7649 42.9658 58.7345 42.9182 58.7034 42.8712C58.6799 42.8357 58.6562 42.8002 58.6321 42.7652C58.6113 42.735 58.5899 42.7055 58.5686 42.6759C57.5214 41.2115 55.8667 40.211 53.9753 40.0459C53.9174 40.0408 53.8594 40.0362 53.8013 40.0327C53.7684 40.0307 53.7354 40.0288 53.7024 40.0273C53.6089 40.023 53.5151 40.0202 53.421 40.0202C53.3269 40.0202 53.2331 40.023 53.1396 40.0273C53.1066 40.0288 53.0736 40.0307 53.0407 40.0327C52.9826 40.0363 52.9246 40.0408 52.8667 40.0459C50.975 40.211 49.3202 41.2118 48.273 42.6765C48.2519 42.7059 48.2306 42.7353 48.21 42.765C48.1857 42.8003 48.162 42.8358 48.1384 42.8715C48.1074 42.9183 48.0771 42.9657 48.0474 43.0134C48.0314 43.0392 48.015 43.0645 47.9992 43.0905C47.9534 43.1665 47.909 43.2435 47.8661 43.3218C47.858 43.3368 47.8503 43.352 47.8421 43.367C47.819 43.41 47.7956 43.453 47.7735 43.4967H44.6779V23.8298H48.1731C48.6766 23.8298 49.0848 23.4217 49.0848 22.9182C49.0848 22.4147 48.6766 22.0065 48.1731 22.0065H44.6779V13.0589C44.6779 12.1038 43.9007 11.3267 42.9456 11.3267H1.73225C0.777125 11.3265 0 12.1037 0 13.0588V33.2018C0 33.7054 0.408125 34.1134 0.911625 34.1134C1.41513 34.1134 1.82325 33.7053 1.82325 33.2018V13.1499H42.8544V22.918V43.4968H18.8814C18.8599 43.4543 18.8371 43.4127 18.8146 43.3708C18.8057 43.3542 18.7971 43.3373 18.7881 43.3207C18.7457 43.2433 18.7019 43.167 18.6564 43.0918C18.6399 43.0645 18.6227 43.0378 18.6059 43.0108C18.577 42.9647 18.5478 42.9188 18.5177 42.8734C18.4935 42.8367 18.4691 42.8002 18.4441 42.7639C18.4247 42.7359 18.4048 42.7084 18.385 42.6809C17.3379 41.2139 15.6818 40.2114 13.7881 40.0462C13.7303 40.041 13.6724 40.0364 13.6141 40.0329C13.5813 40.0309 13.5483 40.029 13.5153 40.0275C13.4218 40.0233 13.328 40.0204 13.2339 40.0204C13.1398 40.0204 13.046 40.0233 12.9525 40.0275C12.9195 40.029 12.8865 40.0309 12.8536 40.0329C12.7955 40.0365 12.7375 40.041 12.6796 40.0462C10.7866 40.2114 9.13087 41.2133 8.08375 42.6795C8.0635 42.7078 8.04312 42.7358 8.02337 42.7644C7.99862 42.8003 7.97438 42.8365 7.95038 42.873C7.92013 42.9188 7.89062 42.9649 7.8615 43.0115C7.84487 43.0383 7.82775 43.0648 7.8115 43.0918C7.766 43.1672 7.722 43.2434 7.67963 43.3209C7.67063 43.3373 7.66213 43.354 7.65325 43.3707C7.63075 43.4127 7.608 43.4544 7.58638 43.497H3.7885H1.82337V38.9072C1.82337 38.4037 1.41525 37.9955 0.91175 37.9955C0.40825 37.9955 0 38.4033 0 38.9069V43.5879C0 44.543 0.777125 45.3202 1.73225 45.3202H2.87687V46.9384C2.87687 47.6838 3.48325 48.2903 4.22875 48.2903H7.21413C8.03625 50.8305 10.4234 52.6734 13.2339 52.6734C16.0444 52.6734 18.4315 50.8307 19.2536 48.2903H47.4011C48.2233 50.8305 50.6104 52.6734 53.4209 52.6734C56.2314 52.6734 58.6185 50.8307 59.4406 48.2903H60.4646C62.414 48.2902 64 46.7043 64 44.7499L63.9981 44.4035ZM6.98612 45.3535C6.98075 45.3873 6.97637 45.4213 6.97162 45.4552C6.9625 45.5194 6.95412 45.5838 6.947 45.6483C6.94313 45.6834 6.9395 45.7187 6.93625 45.7539C6.92988 45.8214 6.92488 45.8892 6.92075 45.957C6.91888 45.988 6.9165 46.0189 6.91512 46.05C6.9105 46.1487 6.90763 46.2477 6.90763 46.3468C6.90763 46.3868 6.908 46.4268 6.90875 46.4668H4.70025V45.32H6.99087C6.989 45.3312 6.98787 45.3424 6.98612 45.3535ZM17.7315 46.5659C17.7288 46.6217 17.7243 46.6775 17.7194 46.7333C17.718 46.7488 17.7173 46.7645 17.7159 46.78C17.7096 46.8448 17.7016 46.9095 17.6925 46.9743C17.6916 46.9809 17.6909 46.9878 17.6899 46.9944C17.681 47.0555 17.6704 47.1164 17.659 47.1773C17.268 49.2648 15.4333 50.8499 13.234 50.8499C11.0347 50.8499 9.19987 49.2648 8.809 47.1773C8.79762 47.1164 8.787 47.0555 8.77812 46.9944C8.77712 46.9878 8.7765 46.9809 8.7755 46.9743C8.76638 46.9095 8.75838 46.8448 8.75212 46.78C8.75062 46.7645 8.74988 46.7489 8.74862 46.7333C8.74375 46.6774 8.73925 46.6217 8.7365 46.5659C8.733 46.4933 8.731 46.4203 8.731 46.3468C8.731 46.273 8.733 46.1998 8.73662 46.1269C8.73787 46.102 8.74012 46.0773 8.74175 46.0524C8.74487 46.0047 8.748 45.957 8.75263 45.9097C8.7555 45.8795 8.75937 45.8497 8.763 45.8195C8.76787 45.778 8.77288 45.7365 8.77888 45.6953C8.78363 45.6625 8.78913 45.63 8.79463 45.5975C8.801 45.5598 8.8075 45.5222 8.81475 45.4848C8.8215 45.45 8.82888 45.4155 8.8365 45.3809C8.844 45.3464 8.852 45.3122 8.86025 45.278C8.86913 45.2418 8.87838 45.2055 8.88825 45.1694C8.89688 45.1374 8.90613 45.1057 8.91537 45.0739C8.92625 45.0372 8.93725 45.0005 8.94913 44.9639C8.95938 44.9323 8.97025 44.9009 8.98112 44.8697C8.99325 44.8347 9.0055 44.7998 9.0185 44.765C9.02638 44.7442 9.03487 44.7235 9.04313 44.7028C9.078 44.614 9.11525 44.5267 9.15537 44.441C9.16025 44.4305 9.16475 44.4198 9.16975 44.4094C9.21362 44.3177 9.26112 44.2283 9.31087 44.1403C9.32088 44.1225 9.33113 44.1048 9.3415 44.0872C9.45075 43.9 9.57213 43.7214 9.70588 43.5537C9.706 43.5535 9.70613 43.5534 9.70613 43.5533C10.4725 42.5918 11.6166 41.9649 12.8631 41.86C12.8814 41.8585 12.8995 41.8572 12.9179 41.8559C13.0227 41.8484 13.1281 41.8435 13.2343 41.8435C13.3404 41.8435 13.4458 41.8484 13.5506 41.8559C13.5689 41.8572 13.5871 41.8585 13.6054 41.86C14.8518 41.9649 15.996 42.5918 16.7624 43.5533C16.7625 43.5534 16.7626 43.5535 16.7626 43.5537C16.8964 43.7214 17.0178 43.9 17.127 44.0872C17.1373 44.1048 17.1475 44.1225 17.1576 44.1403C17.2074 44.2282 17.2548 44.3177 17.2986 44.4094C17.3036 44.4198 17.308 44.4305 17.313 44.441C17.3531 44.5267 17.3905 44.614 17.4252 44.7028C17.4334 44.7235 17.442 44.7442 17.4499 44.765C17.4629 44.7998 17.4751 44.8347 17.4872 44.8697C17.4981 44.901 17.509 44.9323 17.5193 44.9639C17.531 45.0004 17.5421 45.0372 17.553 45.0739C17.5624 45.1057 17.5715 45.1374 17.5801 45.1694C17.5899 45.2055 17.5993 45.2417 17.6081 45.278C17.6165 45.3122 17.6244 45.3465 17.6319 45.3809C17.6395 45.4154 17.6468 45.45 17.6536 45.4848C17.6609 45.5222 17.6675 45.5598 17.6737 45.5975C17.6793 45.63 17.6848 45.6627 17.6895 45.6953C17.6955 45.7365 17.7005 45.778 17.7054 45.8195C17.7089 45.8495 17.7127 45.8795 17.7157 45.9097C17.7204 45.9569 17.7235 46.0047 17.7266 46.0524C17.7283 46.0773 17.7305 46.102 17.7318 46.1269C17.7353 46.1998 17.7374 46.273 17.7374 46.3468C17.737 46.4203 17.735 46.4933 17.7315 46.5659ZM47.1731 45.3535C47.1678 45.3872 47.1634 45.4212 47.1586 45.455C47.1495 45.5193 47.1411 45.5837 47.134 45.6483C47.1301 45.6833 47.1266 45.7184 47.1232 45.7537C47.1169 45.8213 47.1119 45.8892 47.1077 45.9572C47.1059 45.988 47.1035 46.0189 47.1021 46.0499C47.0975 46.1487 47.0946 46.2475 47.0946 46.3468C47.0946 46.3868 47.095 46.4268 47.0957 46.4668H19.5591C19.5599 46.4268 19.5604 46.3868 19.5604 46.3468C19.5604 46.2475 19.5574 46.1487 19.5529 46.05C19.5514 46.0189 19.5491 45.988 19.5473 45.957C19.5431 45.8892 19.5381 45.8214 19.5317 45.7539C19.5285 45.7187 19.5249 45.6834 19.521 45.6483C19.5139 45.5838 19.5055 45.5194 19.4964 45.4552C19.4916 45.4213 19.4871 45.3873 19.4819 45.3535C19.4801 45.3424 19.4789 45.3313 19.4771 45.3202H43.7663H47.178C47.1761 45.3313 47.1749 45.3424 47.1731 45.3535ZM57.9185 46.5659C57.9157 46.6217 57.9113 46.6775 57.9064 46.7333C57.905 46.7488 57.9042 46.7645 57.9029 46.78C57.8966 46.8448 57.8886 46.9095 57.8795 46.9743C57.8785 46.9809 57.8779 46.9878 57.8769 46.9944C57.868 47.0555 57.8574 47.1164 57.846 47.1773C57.4551 49.2648 55.6203 50.8499 53.421 50.8499C51.2224 50.8499 49.3877 49.2655 48.9963 47.1788C48.9847 47.1175 48.9741 47.0563 48.9652 46.9948C48.9642 46.9874 48.9635 46.98 48.9624 46.9727C48.9534 46.9087 48.9455 46.8447 48.9393 46.7805C48.9376 46.7639 48.9369 46.747 48.9354 46.7304C48.9306 46.6757 48.9261 46.6209 48.9235 46.5663C48.92 46.4935 48.9179 46.4205 48.9179 46.347C48.9179 46.2733 48.9199 46.2 48.9235 46.1272C48.9248 46.1023 48.927 46.0775 48.9286 46.0528C48.9317 46.005 48.9349 45.9573 48.9395 45.9099C48.9424 45.8799 48.9462 45.85 48.9497 45.8202C48.9546 45.7784 48.9596 45.7368 48.9656 45.6955C48.9704 45.6632 48.9759 45.6309 48.9813 45.5987C48.9876 45.5605 48.9943 45.5224 49.0016 45.4847C49.0083 45.4505 49.0155 45.4165 49.023 45.3825C49.0308 45.3473 49.0387 45.3123 49.0474 45.2773C49.056 45.2418 49.0651 45.2064 49.0747 45.1712C49.0837 45.1382 49.0931 45.1053 49.1027 45.0725C49.1133 45.0369 49.124 45.0013 49.1355 44.9659C49.1463 44.9328 49.1575 44.9 49.1689 44.8673C49.1805 44.8338 49.1922 44.8003 49.2048 44.767C49.213 44.745 49.222 44.7233 49.2306 44.7015C49.265 44.6143 49.3016 44.5283 49.3411 44.444C49.3465 44.4324 49.3515 44.4205 49.357 44.409C49.4006 44.318 49.4478 44.2292 49.497 44.1419C49.5075 44.1234 49.5181 44.1049 49.5289 44.0865C49.6377 43.9002 49.7586 43.7224 49.8918 43.5552C49.8924 43.5544 49.8929 43.5537 49.8935 43.5529C50.6599 42.5919 51.8037 41.9653 53.0499 41.8604C53.0681 41.8589 53.0864 41.8575 53.1046 41.8563C53.2095 41.8488 53.3149 41.8439 53.421 41.8439C53.5271 41.8439 53.6325 41.8488 53.7374 41.8563C53.7556 41.8575 53.7739 41.8589 53.7921 41.8604C55.0382 41.9653 56.182 42.5919 56.9484 43.5529C56.949 43.5537 56.9496 43.5545 56.9502 43.5553C57.0834 43.7224 57.2041 43.9002 57.313 44.0864C57.3237 44.1048 57.3345 44.1233 57.345 44.1419C57.3944 44.2292 57.4414 44.3179 57.485 44.409C57.4905 44.4205 57.4954 44.4324 57.5009 44.444C57.5404 44.5283 57.577 44.6143 57.6114 44.7015C57.62 44.7234 57.629 44.745 57.6372 44.767C57.6497 44.8003 57.6614 44.8338 57.6731 44.8673C57.6846 44.9 57.6959 44.9329 57.7066 44.9659C57.718 45.0012 57.7287 45.0367 57.7393 45.072C57.749 45.105 57.7585 45.138 57.7675 45.1714C57.777 45.2064 57.786 45.2415 57.7946 45.2768C57.8032 45.3119 57.8114 45.3472 57.8191 45.3827C57.8265 45.4164 57.8337 45.4503 57.8404 45.4842C57.8477 45.5222 57.8545 45.5605 57.8609 45.5989C57.8662 45.6309 57.8717 45.663 57.8764 45.6952C57.8825 45.7368 57.8875 45.7788 57.8924 45.8208C57.8959 45.8504 57.8996 45.8799 57.9025 45.9095C57.9071 45.9573 57.9104 46.0053 57.9135 46.0534C57.9151 46.0779 57.9174 46.1024 57.9185 46.127C57.922 46.1999 57.9241 46.2733 57.9241 46.347C57.924 46.4203 57.922 46.4933 57.9185 46.5659ZM60.4646 46.4669H59.7461C59.7469 46.4269 59.7472 46.3869 59.7472 46.3469C59.7472 46.2477 59.7443 46.1487 59.7397 46.05C59.7383 46.019 59.736 45.9882 59.7341 45.9573C59.73 45.8893 59.725 45.8214 59.7186 45.7538C59.7154 45.7185 59.7118 45.6834 59.7079 45.6484C59.7007 45.5838 59.6924 45.5194 59.6833 45.4552C59.6785 45.4213 59.674 45.3873 59.6688 45.3537C59.667 45.3425 59.6658 45.3314 59.664 45.3203H62.0807C61.8467 45.9873 61.2108 46.4669 60.4646 46.4669Z" fill="black"/>
<path d="M53.421 43.4238C51.8094 43.4238 50.4983 44.735 50.4983 46.3467C50.4983 47.9585 51.8094 49.2696 53.421 49.2696C55.0327 49.2696 56.3439 47.9585 56.3439 46.3467C56.3438 44.735 55.0327 43.4238 53.421 43.4238ZM53.421 47.4461C52.8148 47.4461 52.3217 46.9528 52.3217 46.3466C52.3217 45.7403 52.8148 45.2471 53.421 45.2471C54.0273 45.2471 54.5205 45.7403 54.5205 46.3466C54.5204 46.9528 54.0272 47.4461 53.421 47.4461Z" fill="black"/>
<path d="M13.2339 43.4238C11.6223 43.4238 10.311 44.735 10.311 46.3467C10.311 47.9585 11.6223 49.2696 13.2339 49.2696C14.8455 49.2696 16.1568 47.9585 16.1568 46.3467C16.1568 44.735 14.8455 43.4238 13.2339 43.4238ZM13.2339 47.4461C12.6277 47.4461 12.1344 46.9528 12.1344 46.3466C12.1344 45.7403 12.6277 45.2471 13.2339 45.2471C13.8402 45.2471 14.3334 45.7403 14.3334 46.3466C14.3334 46.9528 13.8402 47.4461 13.2339 47.4461Z" fill="black"/>
<path d="M22.2867 26.2925L14.6635 19.131C14.3126 18.8013 13.7658 18.8015 13.4151 19.131L5.79145 26.2925C5.42445 26.6372 5.40633 27.2142 5.75108 27.5812C6.0962 27.9483 6.67308 27.9662 7.03983 27.6215L14.0392 21.0463L21.0385 27.6215C21.2143 27.7867 21.4386 27.8687 21.6623 27.8687C21.9053 27.8687 22.1476 27.7722 22.3271 27.5812C22.6718 27.2142 22.6537 26.6372 22.2867 26.2925Z" fill="black"/>
<path d="M19.7375 27.4676L15.0711 23.084C14.4925 22.5404 13.5859 22.5404 13.0072 23.084L8.34098 27.4674C8.03873 27.751 7.86548 28.1515 7.86548 28.5661V34.9429C7.86548 35.774 8.5416 36.45 9.37273 36.45H12.459V36.4501H15.6195H18.7056C19.5367 36.4501 20.2127 35.774 20.2127 34.943V28.5661C20.2127 28.1517 20.0395 27.7514 19.7375 27.4676ZM14.7079 34.6267H13.3707V31.4662H14.7079V34.6267ZM18.3895 34.6267H16.5312V30.8885C16.5312 30.2016 15.9724 29.6429 15.2855 29.6429H12.793C12.1061 29.6429 11.5474 30.2017 11.5474 30.8885V34.6267H9.68898V28.7029L14.0392 24.6162L18.3895 28.7029V34.6267Z" fill="black"/>
</svg>
