<svg width="64" height="64" viewBox="0 0 64 64" fill="none" xmlns="http://www.w3.org/2000/svg">
<g clip-path="url(#clip0)">
<path d="M50.6249 32.1256C46.4894 32.1256 43.1249 35.4901 43.1249 39.6256C43.1249 43.7611 46.4894 47.1256 50.6249 47.1256H61.2499C61.2923 47.1256 61.3336 47.1214 61.3755 47.1192C61.417 47.1212 61.4579 47.1255 61.4999 47.1255C62.8806 47.1255 63.9999 46.0062 63.9999 44.6255V25.0005C63.9999 21.6723 62.364 18.7204 59.8555 16.9018L51.3505 2.94932C51.0038 2.38032 50.4442 1.97332 49.7959 1.81883C49.1477 1.66408 48.4647 1.7747 47.8983 2.12595L41.6262 6.01544L38.7977 1.2287C38.4576 0.653202 37.9013 0.237953 37.2529 0.0754535C36.6047 -0.0870462 35.9181 0.0170786 35.3469 0.364078L11.2636 15.0006H7.49999C6.14236 15.0006 5.03399 13.9128 5.00074 12.5631C5.03399 11.2133 6.14236 10.1256 7.49999 10.1256H12.125C13.5057 10.1256 14.625 9.00631 14.625 7.62556C14.625 6.24482 13.5057 5.12557 12.125 5.12557H7.49999C3.96274 5.12557 0.989873 7.58731 0.20375 10.8874C0.0729999 11.1907 0 11.5244 0 11.8756V12.5006V12.6256V54.0005C0 59.5145 4.48599 64.0005 9.99998 64.0005H53.9999C58.3111 64.0005 62.124 61.2541 63.4875 57.1666C63.9245 55.8568 63.2169 54.4408 61.9071 54.004C60.5975 53.5671 59.1814 54.2746 58.7445 55.5843C58.0629 57.6276 56.1563 59.0005 53.9999 59.0005H9.99998C7.24299 59.0005 4.99999 56.7575 4.99999 54.0005V19.5717C5.78236 19.8492 6.62374 20.0005 7.49999 20.0005H53.9999C56.7569 20.0005 58.9999 22.2435 58.9999 25.0005V32.1256H50.6249ZM58.9999 42.1255H50.6249C49.2464 42.1256 48.1249 41.0041 48.1249 39.6255C48.1249 38.247 49.2464 37.1255 50.6249 37.1255H58.9999V42.1255ZM20.891 15.0007L35.7808 5.95157L38.4429 10.4567C38.4941 10.5798 38.5528 10.7012 38.6253 10.8182C38.6797 10.9058 38.7399 10.9874 38.8028 11.0659L41.1278 15.0007H20.891ZM46.9355 15.0006L44.1704 10.3211L48.3924 7.70294L52.8409 15.0006H46.9355Z" fill="black"/>
<path d="M43 40C43 35.5817 46.5817 32 51 32H64V45C64 46.6569 62.6569 48 61 48H51C46.5817 48 43 44.4183 43 40Z" fill="#FF0000"/>
</g>
<defs>
<clipPath id="clip0">
<rect width="64" height="64" fill="white"/>
</clipPath>
</defs>
</svg>
