<svg width="64" height="64" viewBox="0 0 64 64" fill="none" xmlns="http://www.w3.org/2000/svg">
<g clip-path="url(#clip0)">
<path d="M49.8595 7.60756C47.3129 10.8473 45.3998 14.5379 44.2202 18.4861L35.9813 15.8465C37.481 10.8028 39.9538 6.10151 43.2604 2.0083L49.8595 7.60756Z" fill="#FF0000"/>
<path d="M44.2203 20.4858C44.0134 20.4909 43.8069 20.4639 43.6083 20.4058L35.3734 17.7662C34.3346 17.4363 33.7511 16.3353 34.0616 15.2905C35.6279 9.98594 38.2282 5.04372 41.7126 0.748415C42.049 0.328221 42.5407 0.0615066 43.0764 0.00851367C43.6126 -0.0411047 44.146 0.127623 44.5562 0.476452L51.1513 6.07571C51.9699 6.77199 52.0917 7.9907 51.4273 8.83534C49.0386 11.8822 47.2449 15.3515 46.14 19.062C45.9898 19.5795 45.6343 20.0131 45.1561 20.2618C44.8678 20.4136 44.5461 20.4905 44.2203 20.4858ZM38.505 14.5546L42.9444 15.9784C43.9814 13.1196 45.3907 10.41 47.1359 7.91946L43.5643 4.89187C41.422 7.85272 39.718 11.1072 38.505 14.5546Z" fill="black"/>
<path d="M34.0296 40.7431C31.5126 32.4375 31.5126 23.5721 34.0296 15.2665C34.285 14.424 35.0611 13.8476 35.9414 13.8467H35.9814C37.0858 13.8467 37.9811 14.7419 37.9811 15.8464C37.9817 16.1701 37.9021 16.489 37.7491 16.7743C35.5728 24.2228 35.6103 32.1436 37.8571 39.5713L34.0296 40.7431Z" fill="black"/>
<path d="M49.8595 48.402L43.2604 54.0012C39.9538 49.908 37.481 45.2068 35.9813 40.1631L44.2202 37.5234C45.3999 41.4717 47.3131 45.1623 49.8595 48.402Z" fill="#FF0000"/>
<path d="M43.2604 56.0011C43.1991 56.005 43.1376 56.005 43.0764 56.0011C42.542 55.9501 42.0505 55.6864 41.7126 55.2692C38.229 50.9763 35.6289 46.0368 34.0616 40.7351C33.7511 39.6903 34.3346 38.5893 35.3734 38.2595L43.6083 35.6038C44.119 35.441 44.6738 35.4899 45.1481 35.7398C45.6263 35.9885 45.9818 36.4221 46.132 36.9396C47.2402 40.6479 49.0366 44.1145 51.4273 47.1583C52.0917 48.0029 51.9699 49.2216 51.1513 49.9179L44.5562 55.5172C44.1956 55.8275 43.7362 55.9991 43.2604 56.0011ZM38.505 41.455C39.718 44.9024 41.422 48.1569 43.5643 51.1177L47.1359 48.0901C45.3893 45.5999 43.9787 42.8902 42.9404 40.0312L38.505 41.455Z" fill="black"/>
<path d="M35.9814 42.1626H35.9414V38.1631L35.9814 42.1626Z" fill="black"/>
<path d="M40.1408 64H36.1413C29.5149 64 24.1429 58.6281 24.1429 52.0016V24.0053C24.1429 21.7965 22.3523 20.0058 20.1435 20.0058C17.9346 20.0058 16.144 21.7965 16.144 24.0053V52.0016C16.144 53.106 15.2487 54.0013 14.1443 54.0013C13.0398 54.0013 12.1445 53.106 12.1445 52.0016V24.0053C12.1445 19.5876 15.7258 16.0063 20.1435 16.0063C24.5611 16.0063 28.1424 19.5876 28.1424 24.0053V52.0016C28.1424 56.4192 31.7237 60.0005 36.1413 60.0005H40.1408C43.4541 60.0005 46.14 57.3146 46.14 54.0013C46.1448 53.105 45.9437 52.2198 45.5521 51.4136C45.017 50.4475 45.3665 49.2306 46.3327 48.6955C47.299 48.1605 48.5158 48.5099 49.0509 49.4762C49.0786 49.5263 49.1042 49.5776 49.1276 49.63C49.7968 50.9898 50.1431 52.4859 50.1395 54.0014C50.1395 59.5234 45.663 64 40.1408 64Z" fill="black"/>
</g>
<defs>
<clipPath id="clip0">
<rect width="64" height="64" fill="white"/>
</clipPath>
</defs>
</svg>
