<svg width="23" height="13" viewBox="0 0 23 13" fill="none" xmlns="http://www.w3.org/2000/svg">
<path d="M22.5229 11.104C22.4635 11.008 22.0964 10.2373 20.3299 8.65314C18.4806 6.99435 18.729 7.2637 20.9565 4.39549C22.3131 2.6487 22.8555 1.58195 22.6857 1.12592C22.5243 0.691216 21.5265 0.805891 21.5265 0.805891L18.2087 0.824559C18.2087 0.824559 17.963 0.792557 17.7795 0.897898C17.6014 1.00191 17.4869 1.24192 17.4869 1.24192C17.4869 1.24192 16.9611 2.59402 16.26 3.74344C14.7819 6.16896 14.1898 6.29697 13.9483 6.14629C13.3866 5.7956 13.5274 4.73552 13.5274 3.98346C13.5274 1.63262 13.8959 0.652547 12.8083 0.399195C12.4467 0.315188 12.1818 0.259184 11.2585 0.24985C10.0743 0.237849 9.07101 0.25385 8.50379 0.52187C8.12564 0.70055 7.83444 1.09925 8.01247 1.12192C8.23191 1.14992 8.72875 1.25126 8.99235 1.59795C9.33323 2.04465 9.32081 3.05006 9.32081 3.05006C9.32081 3.05006 9.51679 5.81693 8.864 6.16096C8.41546 6.39697 7.80132 5.9156 6.48332 3.71411C5.80845 2.58736 5.29781 1.3406 5.29781 1.3406C5.29781 1.3406 5.19982 1.10858 5.02455 0.984572C4.81201 0.833894 4.51391 0.78589 4.51391 0.78589L1.35899 0.804558C1.35899 0.804558 0.885615 0.817893 0.711722 1.01657C0.55715 1.19392 0.699301 1.55928 0.699301 1.55928C0.699301 1.55928 3.16969 7.14236 5.96578 9.95724C8.53139 12.5374 11.4434 12.3681 11.4434 12.3681H12.7628C12.7628 12.3681 13.1616 12.3254 13.3645 12.1134C13.5522 11.9187 13.5453 11.5534 13.5453 11.5534C13.5453 11.5534 13.5191 9.84256 14.3416 9.59054C15.1518 9.34253 16.1924 11.244 17.2951 11.9761C18.1286 12.5294 18.7621 12.4081 18.7621 12.4081L21.7114 12.3681C21.7114 12.3681 23.2543 12.2761 22.5229 11.104Z" fill="url(#paint0_linear)"/>
<defs>
<linearGradient id="paint0_linear" x1="-41.7439" y1="-57.3372" x2="33.8741" y2="-41.6496" gradientUnits="userSpaceOnUse">
<stop stop-color="#DD0000"/>
<stop offset="0.991476" stop-color="#F37500"/>
</linearGradient>
</defs>
</svg>
